<svg width="402" height="139" viewBox="0 0 402 139" fill="none" xmlns="http://www.w3.org/2000/svg">
<g clip-path="url(#clip0_104_19)">
<path d="M101.491 106.518H87.8451V121.08H101.491V115.965H94.3475V112.047H105.738V119.971C105.738 122.075 105.419 123.508 104.779 124.27C104.14 125.032 102.908 125.414 101.083 125.414H88.1285C86.3035 125.414 85.0713 125.032 84.4322 124.27C83.793 123.508 83.4734 122.075 83.4734 119.971V107.846C83.4734 105.756 83.793 104.327 84.4322 103.557C85.0713 102.787 86.3035 102.403 88.1285 102.403H101.083C102.884 102.403 104.11 102.781 104.761 103.535C105.413 104.289 105.738 105.653 105.738 107.627V108.15L101.491 109.086V106.518Z" fill="black"/>
<path d="M114.978 125.412V102.401H134.204V106.319H119.348V111.456H128.019V115.374H119.348V121.078H134.381V125.41H114.978V125.412Z" fill="black"/>
<path d="M138.859 125.412L149.486 102.401H153.697L164.464 125.412H159.56L157.303 120.383H145.397L143.213 125.412H138.859ZM147.265 116.226H155.492L151.439 106.865L147.265 116.226Z" fill="black"/>
<path d="M170.506 125.412V102.401H186.57C188.064 102.401 189.143 102.753 189.812 103.456C190.482 104.16 190.815 105.296 190.815 106.863V112.262C190.815 113.816 190.48 114.948 189.812 115.659C189.143 116.371 188.062 116.726 186.57 116.726H184.118L192.789 125.412H186.516L178.946 116.726H174.806V125.412H170.506ZM184.633 106.387H174.806V112.787H184.633C185.39 112.787 185.909 112.652 186.188 112.385C186.466 112.116 186.606 111.641 186.606 110.96V108.196C186.606 107.529 186.468 107.06 186.188 106.791C185.909 106.522 185.39 106.387 184.633 106.387Z" fill="black"/>
<path d="M201.567 118.511H202.224C202.544 118.511 202.769 118.624 202.899 118.849C203.03 119.074 203.094 119.506 203.094 120.143V123.757C203.094 124.455 203.024 124.903 202.881 125.106C202.739 125.309 202.3 125.412 201.567 125.412H198.315C197.995 125.412 197.77 125.295 197.639 125.064C197.509 124.833 197.444 124.397 197.444 123.757V120.143C197.444 119.462 197.515 119.02 197.657 118.815C197.8 118.612 198.238 118.509 198.972 118.509H201.567V118.511Z" fill="black"/>
<path d="M226.853 106.518H215.072V121.08H226.853V116.14L231.224 117.249V119.971C231.224 122.075 230.901 123.508 230.256 124.27C229.61 125.032 228.38 125.414 226.569 125.414H215.358C213.532 125.414 212.3 125.032 211.661 124.27C211.022 123.508 210.702 122.075 210.702 119.971V107.846C210.702 105.756 211.022 104.327 211.661 103.557C212.3 102.787 213.532 102.403 215.358 102.403H226.569C228.382 102.403 229.61 102.787 230.256 103.557C230.901 104.327 231.224 105.756 231.224 107.846V110.023L226.853 110.871V106.518Z" fill="black"/>
<path d="M239.841 107.844C239.841 105.754 240.161 104.325 240.8 103.555C241.439 102.785 242.671 102.401 244.496 102.401H258.321C260.146 102.401 261.378 102.785 262.018 103.555C262.657 104.325 262.976 105.754 262.976 107.844V119.969C262.976 122.073 262.657 123.506 262.018 124.268C261.378 125.03 260.146 125.412 258.321 125.412H244.496C242.671 125.412 241.439 125.03 240.8 124.268C240.161 123.506 239.841 122.073 239.841 119.969V107.844ZM244.213 121.08H258.625V106.518H244.213V121.08Z" fill="black"/>
<path d="M272.146 125.412V102.401H275.682L284.53 116.312L293.183 102.401H296.684V125.412H292.632V111.197C292.632 110.922 292.646 110.574 292.676 110.152C292.706 109.732 292.744 109.259 292.791 108.737C292.554 109.332 292.346 109.822 292.17 110.206C291.993 110.59 291.832 110.906 291.689 111.153L284.634 122.646H283.764L276.693 111.109C276.431 110.672 276.21 110.262 276.025 109.878C275.842 109.494 275.69 109.121 275.573 108.757C275.609 109.235 275.635 109.671 275.653 110.063C275.672 110.455 275.68 110.833 275.68 111.195V125.41H272.146V125.412Z" fill="black"/>
<path d="M373.315 1.02485C372.953 1.57559 372.58 2.11828 372.234 2.67907C369.092 7.77442 365.951 12.8698 362.829 17.9812C362.53 18.4696 362.234 18.6747 361.675 18.6726C353.024 18.6485 344.371 18.6566 335.718 18.6566C335.471 18.6566 335.224 18.6566 334.902 18.6566C334.902 19.0204 334.902 19.3118 334.902 19.6033C334.902 36.0873 334.902 52.5733 334.902 69.0573C334.902 75.9134 334.898 82.7675 334.91 89.6236C334.91 90.106 334.806 90.5 334.56 90.9C331.849 95.3441 329.152 99.7983 326.45 104.25C319.819 115.179 313.186 126.109 306.555 137.038C306.42 137.261 306.282 137.48 306.145 137.699C306.103 137.687 306.061 137.675 306.018 137.663C306.018 98.0214 306.018 58.3802 306.018 18.6968C293.138 18.6968 280.339 18.6968 267.477 18.6968C267.477 30.2523 267.477 41.7937 267.477 53.4356C266.337 53.4838 265.256 53.4537 264.174 53.4597C263.061 53.4657 261.949 53.4617 260.836 53.4617C259.744 53.4617 258.651 53.4617 257.559 53.4617C256.446 53.4617 255.334 53.4617 254.221 53.4617C253.129 53.4617 252.036 53.4617 250.944 53.4617C249.831 53.4617 248.719 53.4617 247.606 53.4617C246.514 53.4617 245.421 53.4617 244.33 53.4617C243.238 53.4617 242.145 53.4617 241.053 53.4617C239.94 53.4617 238.828 53.4617 237.715 53.4617C236.623 53.4617 235.53 53.4617 234.438 53.4617C233.325 53.4617 232.213 53.4617 231.1 53.4617C230.018 53.4617 228.937 53.4617 227.856 53.4617C227.838 53.514 227.819 53.5662 227.801 53.6205C240.971 65.4695 254.142 77.3184 267.312 89.1694C267.296 89.2216 267.28 89.2719 267.264 89.3241C267.043 89.3241 266.819 89.3241 266.598 89.3241C257.147 89.3241 247.698 89.3201 238.247 89.3362C237.753 89.3362 237.379 89.1915 236.999 88.8498C230.185 82.7012 223.363 76.5647 216.541 70.4281C210.401 64.9026 204.256 59.3812 198.12 53.8476C197.828 53.5843 197.543 53.4557 197.159 53.4577C194.26 53.4738 191.362 53.4657 188.466 53.4657C188.261 53.4657 188.056 53.4657 187.768 53.4657C187.768 65.4554 187.768 77.3646 187.768 89.298C177.778 89.298 167.871 89.298 157.972 89.298C157.837 88.7593 157.779 37.2068 157.904 35.6612C157.918 35.6431 157.928 35.623 157.944 35.6089C157.958 35.5948 157.976 35.5828 157.994 35.5727C158.012 35.5627 158.034 35.5587 158.054 35.5526C158.074 35.5486 158.095 35.5446 158.117 35.5426C158.137 35.5406 158.159 35.5385 158.179 35.5385C158.199 35.5385 158.221 35.5365 158.241 35.5365C158.261 35.5365 158.283 35.5365 158.304 35.5365C158.346 35.5365 158.388 35.5365 158.43 35.5365C184.639 35.5365 210.847 35.5365 237.055 35.5365C237.098 35.5365 237.14 35.5345 237.182 35.5345C237.202 35.5345 237.224 35.5345 237.244 35.5325C237.264 35.5305 237.287 35.5265 237.307 35.5245C237.327 35.5205 237.349 35.5225 237.369 35.5124C237.387 35.5044 237.403 35.4843 237.461 35.434C237.461 29.5668 237.461 23.6635 237.461 17.7078C237.311 17.6898 237.152 17.6636 236.993 17.6556C236.784 17.6455 236.573 17.6536 236.364 17.6536C176.156 17.6536 115.949 17.6516 55.7413 17.6717C55.076 17.6717 54.6941 17.4566 54.3203 16.8576C50.8691 11.3261 47.3858 5.8207 43.9125 0.305262C43.7818 0.0982325 43.6773 -0.126884 43.5627 -0.343964C111.563 -0.343964 179.563 -0.343964 247.566 -0.343964C247.674 -0.211304 247.771 -0.0605595 247.895 0.0520005C254.291 5.81065 260.691 11.5653 267.091 17.3199C267.179 17.4003 267.284 17.4566 267.475 17.5893C267.475 11.9231 267.475 6.36943 267.475 0.733393C267.804 0.733393 268.07 0.733393 268.337 0.733393C303.08 0.733393 337.823 0.733393 372.564 0.733393C372.815 0.733393 373.066 0.747461 373.317 0.755501C373.315 0.841931 373.315 0.934396 373.315 1.02485Z" fill="url(#paint0_linear_104_19)"/>
<path d="M44.0854 35.5587C77.3047 35.5587 110.436 35.5587 143.56 35.5587C143.699 36.0732 143.723 52.706 143.58 53.4738C120.419 53.4738 97.2459 53.4738 73.9902 53.4738C73.9902 81.9997 73.9902 110.457 73.9902 138.913C73.952 138.923 73.9118 138.933 73.8736 138.943C73.7651 138.786 73.6485 138.637 73.55 138.475C69.4456 131.631 65.3432 124.785 61.2408 117.938C56.4369 109.923 51.633 101.907 46.8291 93.8929C46.0351 92.5703 45.2512 91.2417 44.4432 89.9292C44.1859 89.5131 44.0774 89.091 44.0774 88.5865C44.0874 75.6561 44.0854 62.7258 44.0854 49.7975C44.0854 45.3494 44.0854 40.9032 44.0854 36.4551C44.0854 36.1817 44.0854 35.9104 44.0854 35.5587Z" fill="url(#paint1_linear_104_19)"/>
</g>
<defs>
<linearGradient id="paint0_linear_104_19" x1="324.407" y1="119.44" x2="124.088" y2="-80.8788" gradientUnits="userSpaceOnUse">
<stop stop-color="#EE5D09"/>
<stop offset="0.5426" stop-color="#F34A00"/>
<stop offset="0.9882" stop-color="#F39200"/>
</linearGradient>
<linearGradient id="paint1_linear_104_19" x1="117.185" y1="95.7192" x2="50.5552" y2="29.0893" gradientUnits="userSpaceOnUse">
<stop stop-color="#EE5D09"/>
<stop offset="0.5502" stop-color="#F39200"/>
<stop offset="0.9882" stop-color="#F39200"/>
</linearGradient>
<clipPath id="clip0_104_19">
<rect width="402" height="139" fill="white"/>
</clipPath>
</defs>
</svg>
